<svg height="512" width="512" xmlns="http://www.w3.org/2000/svg">
<rect x="64" y="32" width="32" height="32" fill="#f00"/>
<rect x="96" y="32" width="32" height="32" fill="#f00"/>
<rect x="384" y="32" width="32" height="32" fill="#f00"/>
<rect x="416" y="32" width="32" height="32" fill="#f00"/>
<rect x="64" y="64" width="32" height="32" fill="#f00"/>
<rect x="96" y="64" width="32" height="32" fill="#f00"/>
<rect x="160" y="64" width="32" height="32" fill="#000"/>
<rect x="192" y="64" width="32" height="32" fill="#000"/>
<rect x="384" y="64" width="32" height="32" fill="#f00"/>
<rect x="416" y="64" width="32" height="32" fill="#f00"/>
<rect x="64" y="96" width="32" height="32" fill="#f00"/>
<rect x="96" y="96" width="32" height="32" fill="#f00"/>
<rect x="160" y="96" width="32" height="32" fill="#000"/>
<rect x="192" y="96" width="32" height="32" fill="#000"/>
<rect x="384" y="96" width="32" height="32" fill="#f00"/>
<rect x="416" y="96" width="32" height="32" fill="#f00"/>
<rect x="64" y="128" width="32" height="32" fill="#f00"/>
<rect x="96" y="128" width="32" height="32" fill="#f00"/>
<rect x="160" y="128" width="32" height="32" fill="#000"/>
<rect x="192" y="128" width="32" height="32" fill="#000"/>
<rect x="384" y="128" width="32" height="32" fill="#f00"/>
<rect x="416" y="128" width="32" height="32" fill="#f00"/>
<rect x="64" y="160" width="32" height="32" fill="#f00"/>
<rect x="96" y="160" width="32" height="32" fill="#f00"/>
<rect x="160" y="160" width="32" height="32" fill="#000"/>
<rect x="192" y="160" width="32" height="32" fill="#000"/>
<rect x="288" y="160" width="32" height="32" fill="#000"/>
<rect x="320" y="160" width="32" height="32" fill="#000"/>
<rect x="384" y="160" width="32" height="32" fill="#f00"/>
<rect x="416" y="160" width="32" height="32" fill="#f00"/>
<rect x="64" y="192" width="32" height="32" fill="#f00"/>
<rect x="96" y="192" width="32" height="32" fill="#f00"/>
<rect x="160" y="192" width="32" height="32" fill="#000"/>
<rect x="192" y="192" width="32" height="32" fill="#000"/>
<rect x="288" y="192" width="32" height="32" fill="#000"/>
<rect x="320" y="192" width="32" height="32" fill="#000"/>
<rect x="384" y="192" width="32" height="32" fill="#f00"/>
<rect x="416" y="192" width="32" height="32" fill="#f00"/>
<rect x="64" y="224" width="32" height="32" fill="#f00"/>
<rect x="96" y="224" width="32" height="32" fill="#f00"/>
<rect x="160" y="224" width="32" height="32" fill="#000"/>
<rect x="192" y="224" width="32" height="32" fill="#000"/>
<rect x="256" y="224" width="32" height="32" fill="#000"/>
<rect x="288" y="224" width="32" height="32" fill="#000"/>
<rect x="384" y="224" width="32" height="32" fill="#f00"/>
<rect x="416" y="224" width="32" height="32" fill="#f00"/>
<rect x="64" y="256" width="32" height="32" fill="#f00"/>
<rect x="96" y="256" width="32" height="32" fill="#f00"/>
<rect x="160" y="256" width="32" height="32" fill="#000"/>
<rect x="192" y="256" width="32" height="32" fill="#000"/>
<rect x="224" y="256" width="32" height="32" fill="#000"/>
<rect x="256" y="256" width="32" height="32" fill="#000"/>
<rect x="384" y="256" width="32" height="32" fill="#f00"/>
<rect x="416" y="256" width="32" height="32" fill="#f00"/>
<rect x="64" y="288" width="32" height="32" fill="#f00"/>
<rect x="96" y="288" width="32" height="32" fill="#f00"/>
<rect x="160" y="288" width="32" height="32" fill="#000"/>
<rect x="192" y="288" width="32" height="32" fill="#000"/>
<rect x="224" y="288" width="32" height="32" fill="#000"/>
<rect x="256" y="288" width="32" height="32" fill="#000"/>
<rect x="384" y="288" width="32" height="32" fill="#f00"/>
<rect x="416" y="288" width="32" height="32" fill="#f00"/>
<rect x="64" y="320" width="32" height="32" fill="#f00"/>
<rect x="96" y="320" width="32" height="32" fill="#f00"/>
<rect x="160" y="320" width="32" height="32" fill="#000"/>
<rect x="192" y="320" width="32" height="32" fill="#000"/>
<rect x="256" y="320" width="32" height="32" fill="#000"/>
<rect x="288" y="320" width="32" height="32" fill="#000"/>
<rect x="384" y="320" width="32" height="32" fill="#f00"/>
<rect x="416" y="320" width="32" height="32" fill="#f00"/>
<rect x="64" y="352" width="32" height="32" fill="#f00"/>
<rect x="96" y="352" width="32" height="32" fill="#f00"/>
<rect x="160" y="352" width="32" height="32" fill="#000"/>
<rect x="192" y="352" width="32" height="32" fill="#000"/>
<rect x="288" y="352" width="32" height="32" fill="#000"/>
<rect x="320" y="352" width="32" height="32" fill="#000"/>
<rect x="384" y="352" width="32" height="32" fill="#f00"/>
<rect x="416" y="352" width="32" height="32" fill="#f00"/>
<rect x="64" y="384" width="32" height="32" fill="#f00"/>
<rect x="96" y="384" width="32" height="32" fill="#f00"/>
<rect x="160" y="384" width="32" height="32" fill="#000"/>
<rect x="192" y="384" width="32" height="32" fill="#000"/>
<rect x="288" y="384" width="32" height="32" fill="#000"/>
<rect x="320" y="384" width="32" height="32" fill="#000"/>
<rect x="384" y="384" width="32" height="32" fill="#f00"/>
<rect x="416" y="384" width="32" height="32" fill="#f00"/>
<rect x="64" y="416" width="32" height="32" fill="#f00"/>
<rect x="96" y="416" width="32" height="32" fill="#f00"/>
<rect x="160" y="416" width="32" height="32" fill="#000"/>
<rect x="192" y="416" width="32" height="32" fill="#000"/>
<rect x="288" y="416" width="32" height="32" fill="#000"/>
<rect x="320" y="416" width="32" height="32" fill="#000"/>
<rect x="384" y="416" width="32" height="32" fill="#f00"/>
<rect x="416" y="416" width="32" height="32" fill="#f00"/>
<rect x="64" y="448" width="32" height="32" fill="#f00"/>
<rect x="96" y="448" width="32" height="32" fill="#f00"/>
<rect x="384" y="448" width="32" height="32" fill="#f00"/>
<rect x="416" y="448" width="32" height="32" fill="#f00"/>
</svg>
